# xmcd
#
# Track frame offsets: 
#        187
#        26330
#        42840
#
# Disc length: 867 seconds
#
# Revision: 1
# Processed by: cddbd v1.5.2PL0 Copyright (c) Steve Scherf et al.
# Submitted via: ExactAudioCopy v1.0b6
#
DISCID=18036103
DTITLE=坂本龍一 - Playing the Orchestra 日本限定初回盤 Disc 3 VJD-200-202
DYEAR=1988
DGENRE=Pop
TTITLE0=OKINAWA SONG
TTITLE1=1900
TTITLE2=TIBETAN DANCE
EXTD=YEAR: 1988
EXTT0=
EXTT1=
EXTT2=
PLAYORDER=
